<svg id="Layer_1" data-name="Layer 1" xmlns="http://www.w3.org/2000/svg" viewBox="0 0 225 50.89"><defs><style>.cls-1{fill:#00649d;fill-rule:evenodd;}</style></defs><path class="cls-1" d="M65.69,50.52H70V35.69c.43.24,1.38,1.13,2.2,1.62a14,14,0,1,0-5.75-16.54,18.58,18.58,0,0,0-.82,6.83c0,3.12-.13,21.5,0,22.92Zm12.8-34.61a9.63,9.63,0,1,1-8.38,10.82A9.61,9.61,0,0,1,78.49,15.91Z"/><path class="cls-1" d="M180.53,15.15c-2.13-1.66-3.56-2.83-6.63-3.5-8.62-1.86-17,4.6-17,13.37v.53c0,11.75,14.67,18.47,23.78,9.7A14.23,14.23,0,0,0,184.85,25L185,.3l-4.36,0-.08,14.87Zm-10.69.58a9.62,9.62,0,1,1-8.55,10.69A9.62,9.62,0,0,1,169.84,15.73Z"/><path class="cls-1" d="M119.56,36v3.57l4.34,0c0-4.61,0-9.21,0-13.82a14,14,0,0,0-4-9.81c-9-9-23.74-2.34-23.88,9.49a13.95,13.95,0,0,0,19.26,13.26A16.59,16.59,0,0,0,119.56,36Zm-10.7-19.78A9.63,9.63,0,1,1,100.4,27,9.64,9.64,0,0,1,108.86,16.22Z"/><path class="cls-1" d="M209.52,11.53a14,14,0,1,0,15,12.62,13.91,13.91,0,0,0-15-12.62Zm-.18,4.38a9.63,9.63,0,1,1-8.23,10.91A9.6,9.6,0,0,1,209.34,15.91Z"/><path class="cls-1" d="M127,39.23l4.32,0c.12-3.4-.31-13.81.3-16.17a9.63,9.63,0,0,1,18.62-.1c.66,2.56.24,12.76.35,16.26h4.32c.11-3.39,0-7,0-10.36,0-3.78.15-6-1.27-9.22a14,14,0,0,0-25.38-.05C126.83,22.81,127,25,127,28.79,127,32.24,126.93,35.8,127,39.23Z"/><polygon class="cls-1" points="188.34 39.03 193.43 39.04 193.45 11.76 188.35 11.76 188.34 39.03"/><path class="cls-1" d="M190.62,3c-4,.64-2.92,6.43.91,5.82a3,3,0,0,0,2.4-3.4A2.91,2.91,0,0,0,190.62,3Z"/><path class="cls-1" d="M54.67,40.89H50.6a4.65,4.65,0,0,0-2.55.73h0a4.63,4.63,0,0,0-1.71,2,10.66,10.66,0,0,1-3.93,4.55,10.5,10.5,0,0,1-5.73,1.69V46.7a7.32,7.32,0,0,0,4-1.18,7.49,7.49,0,0,0,2.74-3.18A7.74,7.74,0,0,1,50.6,37.7h4.07Z"/><path class="cls-1" d="M54.67,40.89H50.6a7.78,7.78,0,0,1-7.17-4.63,7.36,7.36,0,0,0-6.75-4.36V28.7a10.56,10.56,0,0,1,5.74,1.69A10.79,10.79,0,0,1,46.34,35a4.66,4.66,0,0,0,1.71,2h0a4.72,4.72,0,0,0,2.55.72h4.07Z"/><path class="cls-1" d="M30,42.58a7.39,7.39,0,0,0,6.64,4.12v3.19a10.51,10.51,0,0,1-5.74-1.69A10.62,10.62,0,0,1,27,43.65a4.59,4.59,0,0,0-.66-1.07Z"/><path class="cls-1" d="M.68,28.7H4.75A4.56,4.56,0,0,0,9,26a10.63,10.63,0,0,1,9.66-6.25v3.2a7.38,7.38,0,0,0-6.75,4.36A8,8,0,0,1,9,30.66,7.83,7.83,0,0,1,4.75,31.9H.68Z"/><path class="cls-1" d="M.68,28.7H4.75A7.83,7.83,0,0,1,9,29.94a7.92,7.92,0,0,1,2.9,3.4,7.38,7.38,0,0,0,6.75,4.36v3.19A10.6,10.6,0,0,1,9,34.65,4.52,4.52,0,0,0,4.75,31.9H.68Z"/><path class="cls-1" d="M36.68,28.7H32.61A4.56,4.56,0,0,1,28.34,26a10.63,10.63,0,0,0-9.66-6.25v3.2a7.41,7.41,0,0,1,6.76,4.36,7.74,7.74,0,0,0,7.17,4.64h4.07Z"/><path class="cls-1" d="M25.32,33.58a7.39,7.39,0,0,1-6.64,4.12v3.19a10.6,10.6,0,0,0,9.66-6.24A4.81,4.81,0,0,1,29,33.58Z"/><path class="cls-1" d="M54.67,22.9H50.6a4.56,4.56,0,0,0-4.26,2.75,10.63,10.63,0,0,1-9.66,6.25V28.7a7.41,7.41,0,0,0,6.75-4.36,7.91,7.91,0,0,1,2.9-3.4A7.82,7.82,0,0,1,50.6,19.7h4.07Z"/><path class="cls-1" d="M54.67,22.9H50.6a7.77,7.77,0,0,1-7.17-4.64,7.41,7.41,0,0,0-6.75-4.36V10.71A10.6,10.6,0,0,1,46.34,17,4.52,4.52,0,0,0,50.6,19.7h4.07Z"/><path class="cls-1" d="M30,18a7.39,7.39,0,0,1,6.64-4.12V10.71A10.6,10.6,0,0,0,27,17,5,5,0,0,1,26.36,18Z"/></svg>